<?xml version="1.0" standalone="no"?><!DOCTYPE svg PUBLIC "-//W3C//DTD SVG 1.1//EN" "http://www.w3.org/Graphics/SVG/1.1/DTD/svg11.dtd"><svg class="icon" width="48px" height="48.00px" viewBox="0 0 1024 1024" version="1.1" xmlns="http://www.w3.org/2000/svg"><path fill="#ffffff" d="M512 0C231.716571 0 0 231.716571 0 512S231.716571 1024 512 1024 1024 792.283429 1024 512 792.283429 0 512 0z m0 215.537371a133.500343 133.500343 0 0 1 134.729143 134.7584 133.500343 133.500343 0 0 1-134.729143 134.729143 133.500343 133.500343 0 0 1-134.729143-134.729143A133.500343 133.500343 0 0 1 512 215.537371z m231.716571 506.733715c-21.562514 43.154286-129.316571 80.808229-231.716571 86.191543-107.783314-5.383314-215.537371-43.154286-237.129143-86.191543-48.566857-91.721143 113.166629-183.296 237.129143-183.296s280.283429 91.574857 231.716571 183.296z" /></svg>