<?xml version="1.0" standalone="no"?><!DOCTYPE svg PUBLIC "-//W3C//DTD SVG 1.1//EN" "http://www.w3.org/Graphics/SVG/1.1/DTD/svg11.dtd"><svg class="icon" width="48px" height="37.55px" viewBox="0 0 1309 1024" version="1.1" xmlns="http://www.w3.org/2000/svg"><path fill="#ff5777" d="M1237.32124 398.544485a71.28646 71.28646 0 1 1 71.4002-71.4002 71.087415 71.087415 0 0 1-71.4002 71.4002z m-185.253805 624.033767l-797.600799 1.421748L142.802524 438.182828l242.379651 98.271243 269.876263-308.462513L924.536612 536.454071l242.009997-100.005776zM770.305356 682.723537L654.404434 802.150394l-115.502832-118.943463-54.62357 55.192269 169.898922 171.519716 170.609797-172.17372zM654.404434 170.581362a85.304898 85.304898 0 1 1 85.304899-85.304899 85.020549 85.020549 0 0 1-85.304899 85.304899zM71.487629 398.373875A71.28646 71.28646 0 1 1 142.575044 327.00211 70.94524 70.94524 0 0 1 71.487629 398.373875z"  /></svg>