<?xml version="1.0" standalone="no"?><!DOCTYPE svg PUBLIC "-//W3C//DTD SVG 1.1//EN" "http://www.w3.org/Graphics/SVG/1.1/DTD/svg11.dtd"><svg class="icon" width="48px" height="48.00px" viewBox="0 0 1024 1024" version="1.1" xmlns="http://www.w3.org/2000/svg"><path fill="#ffffff" d="M511.98047 821.277998a52.184315 52.184315 0 1 0 52.184315 52.106195 52.223375 52.223375 0 0 0-52.184315-52.106195zM770.128776 0H253.871224A78.862374 78.862374 0 0 0 175.08697 78.784254v866.431492a78.862374 78.862374 0 0 0 78.784254 78.784254h516.257552a78.862374 78.862374 0 0 0 78.784254-78.784254V78.784254A78.862374 78.862374 0 0 0 770.128776 0zM253.871224 52.496796h516.257552a26.287458 26.287458 0 0 1 26.248398 26.248398v649.140067H227.466585V78.784254a26.287458 26.287458 0 0 1 26.404639-26.248398zM770.128776 971.425084H253.871224a26.287458 26.287458 0 0 1-26.248398-26.248398v-160.146475h568.793408v160.146475a26.287458 26.287458 0 0 1-26.287458 26.287458z" /></svg>