<?xml version="1.0" standalone="no"?><!DOCTYPE svg PUBLIC "-//W3C//DTD SVG 1.1//EN" "http://www.w3.org/Graphics/SVG/1.1/DTD/svg11.dtd"><svg class="icon" width="48px" height="48.00px" viewBox="0 0 1024 1024" version="1.1" xmlns="http://www.w3.org/2000/svg"><path fill="#ff5777" d="M915.1 202.1C915.1 125.8 855 64 780.8 64H243.2c-74.2 0-134.4 61.8-134.4 138.1L64 821.9C64 898.2 124.1 960 198.4 960h627.2c74.2 0 134.4-61.8 134.4-138.1-9.8-134.7-17.1-235.6-21.9-303-5.1-70.4-12.8-176-23-316.8zM792 232.7c0 59.6-26.2 115.7-73.8 157.9C670.6 432.8 607.3 456 540 456s-130.6-23.2-178.2-65.4c-47.6-42.2-73.8-98.3-73.8-157.9v-0.6l61.9 0.1v0.7c0.1 92.8 85.3 168.2 190.1 168.2s189.9-75.5 190-168.2v-0.6l62-0.2v0.6z"  /></svg>