<?xml version="1.0" standalone="no"?><!DOCTYPE svg PUBLIC "-//W3C//DTD SVG 1.1//EN" "http://www.w3.org/Graphics/SVG/1.1/DTD/svg11.dtd"><svg class="icon" width="48px" height="44.81px" viewBox="0 0 1097 1024" version="1.1" xmlns="http://www.w3.org/2000/svg"><path fill="#ff5777" d="M932.571 36.571h-768A90.697 90.697 0 0 0 73.143 128v581.486a91.429 91.429 0 0 0 91.428 95.085H321.83V936.23a50.103 50.103 0 0 0 51.2 51.2 65.097 65.097 0 0 0 36.57-14.63l168.229-168.229h351.085a90.697 90.697 0 0 0 91.429-91.428V128a85.577 85.577 0 0 0-87.772-91.429zM661.943 577.83H266.97a47.543 47.543 0 0 1 0-95.086h394.972a47.543 47.543 0 0 1 0 95.086zM830.17 358.4h-563.2a46.08 46.08 0 0 1-47.542-47.543 48.274 48.274 0 0 1 47.542-47.543h563.2a48.274 48.274 0 0 1 47.543 47.543A46.08 46.08 0 0 1 830.17 358.4z"  /></svg>