<?xml version="1.0" standalone="no"?><!DOCTYPE svg PUBLIC "-//W3C//DTD SVG 1.1//EN" "http://www.w3.org/Graphics/SVG/1.1/DTD/svg11.dtd"><svg class="icon" width="48px" height="48.00px" viewBox="0 0 1024 1024" version="1.1" xmlns="http://www.w3.org/2000/svg"><path fill="#707070" d="M416 192v224H192V192h224m32-64H160c-17.67 0-32 14.33-32 32v288c0 17.67 14.33 32 32 32h288c17.67 0 32-14.33 32-32V160c0-17.67-14.33-32-32-32zM832 192v224H608V192h224m32-64H576c-17.67 0-32 14.33-32 32v288c0 17.67 14.33 32 32 32h288c17.67 0 32-14.33 32-32V160c0-17.67-14.33-32-32-32zM416 608v224H192V608h224m32-64H160c-17.67 0-32 14.33-32 32v288c0 17.67 14.33 32 32 32h288c17.67 0 32-14.33 32-32V576c0-17.67-14.33-32-32-32zM832 608v224H608V608h224m32-64H576c-17.67 0-32 14.33-32 32v288c0 17.67 14.33 32 32 32h288c17.67 0 32-14.33 32-32V576c0-17.67-14.33-32-32-32z" /></svg>