<?xml version="1.0" standalone="no"?><!DOCTYPE svg PUBLIC "-//W3C//DTD SVG 1.1//EN" "http://www.w3.org/Graphics/SVG/1.1/DTD/svg11.dtd"><svg class="icon" width="48px" height="48.00px" viewBox="0 0 1024 1024" version="1.1" xmlns="http://www.w3.org/2000/svg"><path fill="#707070" d="M913.02 243.34C904 231.23 889.59 224 874.5 224H264.24l-6.74-53.95c-3-23.97-23.47-42.05-47.62-42.05H128c-17.67 0-32 14.33-32 32s14.33 32 32 32h67.75l58.75 469.95c3 23.97 23.47 42.05 47.62 42.05H800c17.67 0 32-14.33 32-32s-14.33-32-32-32H316.25l-4-32h475.84c21.03 0 39.94-14.06 45.98-34.2l86.41-288.02c4.33-14.45 1.55-30.33-7.46-42.44zM776.19 544H304.25l-32-256H853l-76.81 256zM384 736c-52.93 0-96 43.06-96 96 0 52.93 43.07 96 96 96 52.94 0 96-43.07 96-96 0-52.94-43.06-96-96-96z m0 128c-17.67 0-32-14.33-32-32s14.33-32 32-32 32 14.33 32 32-14.33 32-32 32zM704 736c-52.93 0-96 43.06-96 96 0 52.93 43.07 96 96 96 52.94 0 96-43.07 96-96 0-52.94-43.06-96-96-96z m0 128c-17.67 0-32-14.33-32-32s14.33-32 32-32 32 14.33 32 32-14.33 32-32 32z" /></svg>