<?xml version="1.0" standalone="no"?><!DOCTYPE svg PUBLIC "-//W3C//DTD SVG 1.1//EN" "http://www.w3.org/Graphics/SVG/1.1/DTD/svg11.dtd"><svg class="icon" width="48px" height="48.00px" viewBox="0 0 1024 1024" version="1.1" xmlns="http://www.w3.org/2000/svg"><path fill="#ff5777" d="M947.19 405.06L540.8 100.27c-16.97-12.72-40.62-12.72-57.59 0L76.8 405.06c-14.14 10.59-17 30.66-6.39 44.8s30.64 17.05 44.8 6.39l52.8-39.6v412.66c0 36.78 29.91 66.69 66.67 66.69h554.67c36.75 0 66.66-29.91 66.66-66.69V416.64l52.81 39.61a31.708 31.708 0 0 0 19.16 6.41c9.75 0 19.34-4.42 25.62-12.8 10.62-14.14 7.74-34.2-6.41-44.8zM576 832H448v-93.35c0-34.74 28.26-63 63-63h2c34.74 0 63 28.26 63 63V832z m216-2.69c0 1.47-1.19 2.69-2.66 2.69H640v-93.35c0-70.14-56.86-127-127-127h-2c-70.14 0-127 56.86-127 127V832H234.67c-1.47 0-2.67-1.22-2.67-2.69V368.66l280-210 280 209.99v460.66z" /></svg>