<?xml version="1.0" standalone="no"?><!DOCTYPE svg PUBLIC "-//W3C//DTD SVG 1.1//EN" "http://www.w3.org/Graphics/SVG/1.1/DTD/svg11.dtd"><svg class="icon" width="48px" height="48.00px" viewBox="0 0 1024 1024" version="1.1" xmlns="http://www.w3.org/2000/svg"><path fill="#707070" d="M642.43 510.74C698.98 470.04 736 403.83 736 329c0-123.52-100.48-224-224-224S288 205.48 288 329c0 74.84 37.02 141.04 93.57 181.74-153.66 51.62-269.89 191.02-283.84 359.62-1.45 17.61 11.64 33.08 29.25 34.53 17.83 1.44 33.08-11.64 34.53-29.25C176.48 694.72 330.42 553 512 553s335.53 141.72 350.5 322.64c1.38 16.72 15.38 29.36 31.86 29.36 0.88 0 1.77-0.03 2.67-0.11 17.61-1.45 30.7-16.92 29.25-34.53-13.94-168.6-130.17-308.01-283.85-359.62zM352 329c0-88.22 71.78-160 160-160s160 71.78 160 160-71.78 160-160 160-160-71.78-160-160z" /></svg>